General
Complete name                    : Disturbia.2007.Hindi.Dubbed.720p.bluray.DjVikas.mkv
Format                           : Matroska
File size                        : 2.08 GiB
Duration                         : 1h 40mn
Overall bit rate                 : 2 972 Kbps


Video
ID                               : 1
Format                           : AVC
Format/Info                      : Advanced Video Codec
Format profile                   : High@L4.1
Format settings, CABAC           : Yes
Format settings, ReFrames        : 10 frames
Muxing mode                      : Container profile=Unknown@4.1
Codec ID                         : V_MPEG4/ISO/AVC
Duration                         : 1h 40mn
Bit rate                         : 2 601 Kbps
Width                            : 1 280 pixels
Height                           : 720 pixels
Display aspect ratio             : 16:9
Frame rate                       : 25.000 fps
Original frame rate              : 23.976 fps
Color space                      : YUV
Chroma subsampling               : 4:2:0
Bit depth                        : 8 bits
Scan type                        : Progressive
Bits/(Pixel*Frame)               : 0.113
Stream size                      : 1.86 GiB (89%)
Writing library                  : x264 core 67 r1128M 682b54d


Audio
ID                               : 2
Format                           : AC-3
Format/Info                      : Audio Coding 3
Mode extension                   : CM (complete main)
Codec ID                         : A_AC3
Duration                         : 1h 40mn
Bit rate mode                    : Constant
Bit rate                         : 256 Kbps
Channel(s)                       : 2 channels
Channel positions                : Front: L R
Sampling rate                    : 48.0 KHz
Bit depth                        : 16 bits
Stream size                      : 184 MiB (9%)
Title                            : Hindi-DjVikas

================================================================


